<svg width="708" height="709" viewBox="0 0 708 709" fill="none" xmlns="http://www.w3.org/2000/svg">
<g clip-path="url(#clip0_202_181)">
<path opacity="0.2" d="M707.423 537.438V355.968H707.999V353.965H707.423V172.496C707.412 127.992 690.092 85.2371 659.126 53.2718V49.9791H707.423V47.9623H660.525L705.557 2.68752L704.185 1.31556L659.166 46.5903V2.28965H657.164V47.9623H653.76C622.252 17.8457 580.35 1.02654 536.762 1H170.647C127.077 1.04065 85.198 17.8588 53.7036 47.9623H50.2872V2.28965H48.2977V46.5492L3.2793 1.27439L1.90721 2.64635L46.9255 47.9211H2.85395V49.9242H48.2977V53.2718C17.3268 85.2346 0.00617912 127.991 0 172.496V537.438C0.00617912 581.942 17.3268 624.698 48.2977 656.661V660.009H2.85395V662.012H46.8843L1.86605 707.287L3.23814 708.659L48.2565 663.384V707.644H50.246V661.97H53.6625C85.1671 692.084 127.064 708.903 170.647 708.933H536.762C580.336 708.896 622.221 692.078 653.72 661.97H657.122V707.644H659.126V663.384L704.143 708.659L705.516 707.287L660.484 662.012H707.999V660.009H659.126V656.661C690.085 624.691 707.404 581.94 707.423 537.438ZM705.42 537.438C705.417 580.7 688.851 622.319 659.126 653.752V481.804H704.706V479.815H659.126V355.968H705.42V537.438ZM479.313 479.815L477.941 478.443C480.218 476.129 482.427 473.751 484.567 471.309V479.815H479.313ZM484.567 481.818V485.098L481.302 481.818H484.567ZM223.994 479.815V472.612C225.777 474.601 227.617 476.536 229.483 478.443L228.11 479.815H223.994ZM226.121 481.818L223.994 483.931V481.804L226.121 481.818ZM228.11 230.118L229.483 231.49C227.617 233.396 225.777 235.345 223.994 237.321V230.118H228.11ZM223.994 228.115V226.003L226.121 228.128L223.994 228.115ZM484.567 230.118V238.624C482.427 236.182 480.218 233.804 477.941 231.49L479.313 230.118H484.567ZM481.302 228.115L484.567 224.836V228.115H481.302ZM484.567 353.951H479.875C479.667 321.035 466.668 289.489 443.625 265.98L476.554 232.917C479.299 235.725 481.98 238.638 484.595 241.656L484.567 353.951ZM486.557 244.029C512.15 274.958 526.214 313.809 526.348 353.951H486.557V244.029ZM442.211 267.353C464.893 290.474 477.687 321.511 477.886 353.897H356.112L442.211 267.353ZM354.713 352.415V230.118C386.991 230.343 417.896 243.208 440.798 265.954L354.713 352.415ZM352.71 352.415L266.611 265.858C289.539 243.154 320.443 230.326 352.71 230.118V352.415ZM351.338 353.787H229.537C229.744 321.402 242.537 290.368 265.211 267.243L351.338 353.787ZM351.338 355.79L265.239 442.333C242.565 419.209 229.772 388.174 229.565 355.79H351.338ZM352.71 357.162V479.815C320.425 479.589 289.516 466.718 266.611 443.966L352.71 357.162ZM354.713 357.162L440.798 443.705C417.943 466.555 387.032 479.522 354.713 479.815V357.162ZM356.086 355.79H477.845C477.645 388.176 464.851 419.213 442.171 442.333L356.086 355.79ZM475.114 231.49L442.184 264.568C424.109 246.638 401.012 234.624 375.953 230.118H473.715L475.114 231.49ZM354.713 228.115V181.372C398.198 181.585 439.979 198.296 471.615 228.128L354.713 228.115ZM352.71 228.115H235.808C267.437 198.274 309.223 181.562 352.71 181.358V228.115ZM331.456 230.118C306.39 234.625 283.283 246.638 265.198 264.568L232.268 231.49L233.64 230.118H331.456ZM230.895 232.862L263.826 265.926C240.772 289.428 227.77 320.978 227.575 353.897H224.021V240.353C226.231 237.815 228.522 235.331 230.895 232.93V232.862ZM222.005 353.897H181.02C181.173 313.139 195.684 273.739 222.005 242.617V353.897ZM222.005 355.9V467.18C195.684 436.057 181.173 396.657 181.02 355.9H222.005ZM223.994 355.9H227.547C227.74 388.814 240.742 420.361 263.798 443.856L230.868 476.934C228.494 474.533 226.203 472.05 224.007 469.511L223.994 355.9ZM232.309 478.443L265.239 445.365C283.314 463.288 306.404 475.301 331.456 479.815H233.708L232.309 478.443ZM352.71 481.818V528.575C309.223 528.371 267.437 511.659 235.808 481.818H352.71ZM354.713 481.818H471.615C439.979 511.651 398.198 528.362 354.713 528.575V481.818ZM375.953 479.815C401.021 475.315 424.129 463.3 442.211 445.365L475.142 478.443L473.769 479.815H375.953ZM476.528 477.072L443.597 443.993C466.643 420.492 479.643 388.95 479.848 356.036H484.541V468.332C481.98 471.295 479.309 474.208 476.528 477.072ZM486.557 356.036H526.348C526.214 396.178 512.15 435.03 486.557 465.958V356.036ZM528.392 354.034C528.239 312.601 513.418 272.56 486.557 241.011V230.118H592.071C611.933 268.38 622.345 310.842 622.435 353.951L528.392 354.034ZM486.557 228.197V222.901L544.432 164.744C562.967 183.515 578.66 204.891 591.015 228.197H486.557ZM486.557 220.075V120.114C507.198 131.94 526.183 146.443 543.019 163.248L486.557 220.075ZM484.567 222.078L478.49 228.197H474.524C442.373 197.088 399.452 179.591 354.713 179.356V84.8544C400.203 84.9543 444.91 96.7061 484.567 118.989V222.078ZM352.71 179.356C307.982 179.567 265.062 197.034 232.899 228.115H228.934L223.994 223.148V118.33C263.376 96.4613 307.662 84.9388 352.71 84.8407V179.356ZM222.005 221.159L164.376 163.248C181.534 146.136 200.917 131.41 222.005 119.469V221.159ZM222.005 223.999V228.115H116.353C128.704 204.806 144.398 183.428 162.936 164.662L222.005 223.999ZM222.005 230.132V239.598C194.433 271.339 179.178 311.924 179.016 353.965H84.9873C85.0762 310.851 95.488 268.385 115.352 230.118L222.005 230.132ZM179.016 355.968C179.178 398.009 194.433 438.595 222.005 470.335V479.815H115.352C95.4901 441.552 85.0785 399.091 84.9873 355.982L179.016 355.968ZM222.005 481.804V485.921L163.004 545.231C144.466 526.463 128.773 505.086 116.422 481.777L222.005 481.804ZM222.005 488.774V590.464C200.917 578.523 181.534 563.797 164.376 546.685L222.005 488.774ZM223.994 486.771L228.934 481.804H232.899C265.06 512.891 307.98 530.363 352.71 530.578V625.107C307.662 624.997 263.377 613.469 223.994 591.602V486.771ZM354.713 530.578C399.441 530.364 442.36 512.897 474.524 481.818H478.49L484.567 487.937V590.945C444.909 613.225 400.203 624.981 354.713 625.093V530.578ZM486.557 489.94L543.019 546.699C526.176 563.496 507.192 577.999 486.557 589.833V489.94ZM486.557 487.114V481.818H591.015C578.66 505.125 562.967 526.501 544.432 545.271L486.557 487.114ZM486.557 479.815V469.004C513.418 437.455 528.239 397.415 528.392 355.982H622.435C622.345 399.091 611.933 441.552 592.071 479.815H486.557ZM624.425 355.982H657.122V479.815H594.321C614.022 441.499 624.34 399.052 624.425 355.968V355.982ZM624.425 353.979C624.342 310.891 614.024 268.439 594.321 230.118H657.122V353.951L624.425 353.979ZM593.265 228.142C580.742 204.298 564.762 182.435 545.846 163.262L655.86 52.723L655.956 52.8053C656.367 53.2306 656.779 53.6834 657.19 54.1773V228.128L593.265 228.142ZM654.351 51.3373L544.432 161.835C527.199 144.636 507.733 129.828 486.557 117.809V49.9654H652.923L654.351 51.3373ZM484.567 116.698C444.848 94.6005 400.167 82.9499 354.713 82.8376V49.9105H484.567V116.698ZM354.713 47.9623V3.00306H484.567V47.9623H354.713ZM352.71 47.9623H223.994V3.00306H352.71V47.9623ZM352.71 49.9654V82.8925C307.699 82.9978 263.436 94.4199 223.994 116.107V49.9654H352.71ZM222.005 117.192C200.392 129.315 180.54 144.341 163.004 161.849L53.0863 51.3511L54.4583 49.9791H222.005V117.192ZM51.5358 52.8053L51.6181 52.723L161.578 163.248C142.652 182.417 126.668 204.28 114.145 228.128H50.2872V54.1225C50.7674 53.6834 51.1105 53.2306 51.5358 52.8053ZM113.102 230.118C93.4034 268.431 83.0858 310.872 82.9979 353.951H50.2872V230.118H113.102ZM82.9979 355.954C83.0816 399.042 93.3993 441.495 113.102 479.815H50.2872V355.968L82.9979 355.954ZM114.145 481.79C126.668 505.638 142.652 527.502 161.578 546.671L51.6181 657.21L51.5358 657.128C51.1105 656.702 50.7125 656.249 50.2872 655.756V481.804L114.145 481.79ZM53.0725 658.596L162.99 548.097C180.53 565.607 200.38 580.636 221.991 592.769V659.995H54.4995L53.0725 658.596ZM223.994 593.881C263.436 615.568 307.699 626.99 352.71 627.095V660.022H223.994V593.881ZM352.71 661.97V706.929H223.994V661.97H352.71ZM354.713 661.97H484.567V706.929H354.713V661.97ZM354.713 659.968V627.041C400.167 626.929 444.848 615.278 484.567 593.18V659.913L354.713 659.968ZM486.557 592.124C507.733 580.105 527.199 565.298 544.432 548.097L654.351 658.596L652.979 659.968H486.557V592.124ZM655.86 657.128L655.764 657.21L545.818 546.685C564.736 527.512 580.715 505.649 593.238 481.804H657.094V655.811L655.86 657.128ZM705.42 172.496V353.965H659.126V230.118H704.706V228.115H659.126V56.2215C688.841 87.6452 705.406 129.248 705.42 172.496ZM650.838 47.9211H486.557V3.00306H536.762C579.104 3.03433 619.863 19.0981 650.838 47.9623V47.9211ZM170.606 2.96191H222.005V47.9211H56.5851C87.5629 19.0739 128.315 3.02525 170.647 3.00306L170.606 2.96191ZM1.98953 537.438V172.496C1.99808 129.232 18.5677 87.6131 48.2977 56.1804V228.087H2.74418V230.118H48.2977V353.951H2.57953V355.954H48.2977V479.815H2.74418V481.818H48.2977V653.726C18.5742 622.299 2.0051 580.691 1.98953 537.438ZM56.5851 662.012H222.005V706.971H170.647C128.305 706.926 87.5502 690.849 56.5851 661.97V662.012ZM536.818 706.971H486.557V661.97H650.838C619.86 690.832 579.104 706.896 536.762 706.929L536.818 706.971Z" fill="url(#paint0_radial_202_181)"/>
<mask id="mask0_202_181" style="mask-type:alpha" maskUnits="userSpaceOnUse" x="0" y="0" width="708" height="709">
<path d="M708 0H0V708.934H708V0Z" fill="url(#paint1_radial_202_181)"/>
</mask>
<g mask="url(#mask0_202_181)">
<path d="M109.5 588.955C109.5 583.488 109.5 580.755 110.581 578.674C111.492 576.921 112.921 575.492 114.675 574.581C116.755 573.5 119.489 573.5 124.956 573.5H178.043C183.511 573.5 186.244 573.5 188.325 574.581C190.078 575.492 191.508 576.921 192.419 578.674C193.5 580.755 193.5 583.488 193.5 588.955V642.038C193.5 647.505 193.5 650.238 192.419 652.318C191.508 654.071 190.078 655.501 188.325 656.411C186.244 657.493 183.511 657.493 178.043 657.493H124.956C119.489 657.493 116.755 657.493 114.675 656.411C112.921 655.501 111.492 654.071 110.581 652.318C109.5 650.238 109.5 647.505 109.5 642.038V588.955Z" fill="white" fill-opacity="0.1"/>
<path d="M178.044 573H124.956H124.932C122.219 573 120.152 573 118.504 573.138C116.846 573.275 115.568 573.553 114.444 574.138C112.599 575.096 111.095 576.599 110.137 578.444C109.553 579.568 109.275 580.846 109.137 582.504C109 584.151 109 586.218 109 588.931V588.955V642.039V642.062C109 644.775 109 646.842 109.137 648.49C109.275 650.148 109.553 651.425 110.137 652.549C111.095 654.393 112.599 655.898 114.444 656.855C115.568 657.439 116.846 657.718 118.504 657.856C120.152 657.993 122.219 657.993 124.932 657.993H124.956H178.044H178.068C180.782 657.993 182.848 657.993 184.496 657.856C186.155 657.718 187.432 657.439 188.556 656.855C190.4 655.898 191.905 654.393 192.863 652.549C193.447 651.425 193.725 650.148 193.864 648.49C194 646.842 194 644.775 194 642.062V642.039V588.955V588.931C194 586.218 194 584.151 193.864 582.504C193.725 580.846 193.447 579.568 192.863 578.444C191.905 576.599 190.4 575.096 188.556 574.138C187.432 573.553 186.155 573.275 184.496 573.138C182.848 573 180.782 573 178.068 573H178.044Z" stroke="white" stroke-opacity="0.2" stroke-width="0.937853"/>
<mask id="mask1_202_181" style="mask-type:luminance" maskUnits="userSpaceOnUse" x="122" y="586" width="59" height="59">
<path d="M180.5 586.5H122.5V644.495H180.5V586.5Z" fill="white"/>
</mask>
<g mask="url(#mask1_202_181)">
<path d="M126.125 586.5H176.875L172.259 638.606L151.444 644.494L130.746 638.604L126.125 586.5ZM167.426 597.164L135.574 597.156L136.089 603.493L160.558 603.497L159.941 610.06H143.894L144.474 616.278H159.415L158.53 624.79L151.498 626.734L144.354 624.776L143.9 619.677H137.593L138.293 628.993L151.5 633.108L164.485 629.411L167.426 597.166V597.164Z" fill="white"/>
</g>
<path d="M382.986 70.626H329.987C321.702 70.626 314.986 77.341 314.986 85.6246V138.619C314.986 146.904 321.702 153.618 329.987 153.618H382.986C391.271 153.618 397.987 146.904 397.987 138.619V85.6246C397.987 77.341 391.271 70.626 382.986 70.626Z" fill="white" fill-opacity="0.1"/>
<path d="M382.986 70.126H329.987C321.427 70.126 314.486 77.0649 314.486 85.6246V138.619C314.486 147.18 321.427 154.118 329.987 154.118H382.986C391.547 154.118 398.487 147.18 398.487 138.619V85.6246C398.487 77.065 391.547 70.126 382.986 70.126Z" stroke="white" stroke-opacity="0.2" stroke-width="0.937853"/>
<path d="M370.741 135.464C372.413 138.193 374.588 140.2 378.435 140.2C381.667 140.2 383.731 138.584 383.731 136.353C383.731 133.679 381.61 132.731 378.053 131.176L376.103 130.34C370.475 127.942 366.736 124.938 366.736 118.588C366.736 112.739 371.193 108.287 378.159 108.287C383.117 108.287 386.682 110.013 389.251 114.532L383.178 118.431C381.84 116.033 380.398 115.088 378.159 115.088C375.874 115.088 374.426 116.537 374.426 118.431C374.426 120.77 375.875 121.718 379.222 123.167L381.171 124.001C387.798 126.843 391.539 129.739 391.539 136.253C391.539 143.274 386.023 147.121 378.615 147.121C371.372 147.121 366.692 143.669 364.403 139.145L370.741 135.464ZM343.189 136.14C344.415 138.314 345.529 140.151 348.208 140.151C350.771 140.151 352.387 139.148 352.387 135.25V108.733H360.187V135.356C360.187 143.431 355.451 147.106 348.54 147.106C342.296 147.106 338.679 143.875 336.84 139.983L343.189 136.14Z" fill="white"/>
<path d="M207.721 27.3647H155.721C146.884 27.3647 139.721 34.5275 139.721 43.3632V95.3584C139.721 104.194 146.884 111.357 155.721 111.357H207.721C216.557 111.357 223.721 104.194 223.721 95.3584V43.3632C223.721 34.5275 216.557 27.3647 207.721 27.3647Z" fill="white" fill-opacity="0.1"/>
<path d="M207.721 26.8647H155.721C146.608 26.8647 139.221 34.2514 139.221 43.3632V95.3583C139.221 104.47 146.608 111.857 155.721 111.857H207.721C216.833 111.857 224.221 104.47 224.221 95.3583V43.3632C224.221 34.2514 216.833 26.8647 207.721 26.8647Z" stroke="white" stroke-opacity="0.2" stroke-width="0.937853"/>
<path d="M181.533 80.9216C199.203 81.2093 213.613 76.2682 213.716 69.8853C213.821 63.5023 199.579 58.0946 181.909 57.8069C164.238 57.5191 149.83 62.4603 149.725 68.8432C149.622 75.2262 163.862 80.6338 181.533 80.9216Z" stroke="white" stroke-width="2.73905"/>
<path d="M171.046 74.9668C179.645 89.5883 191.395 98.9312 197.291 95.8349C203.185 92.7385 200.993 78.3755 192.393 63.7541C183.794 49.1327 172.044 39.7898 166.148 42.8861C160.254 45.9824 162.446 60.3454 171.046 74.9668Z" stroke="white" stroke-width="2.73905"/>
<path d="M171.235 63.4094C162.165 77.743 159.505 92.0271 165.296 95.3137C171.087 98.6003 183.136 89.6449 192.207 75.3113C201.277 60.9776 203.937 46.6935 198.146 43.4069C192.355 40.1203 180.306 49.0757 171.235 63.4094Z" stroke="white" stroke-width="2.73905"/>
<path fill-rule="evenodd" clip-rule="evenodd" d="M193.814 69.6363C192.986 67.943 192.064 66.2243 191.049 64.4988C190.035 62.7748 188.978 61.1285 187.895 59.5715C185.932 59.4002 183.899 59.2938 181.812 59.2598C179.726 59.2259 177.69 59.2661 175.723 59.3733C174.588 60.8942 173.479 62.5052 172.41 64.1953C171.339 65.8867 170.361 67.5746 169.479 69.24C170.306 70.933 171.228 72.6516 172.243 74.3767C173.258 76.1034 174.317 77.7522 175.403 79.3114C177.365 79.4825 179.397 79.5888 181.48 79.6227C183.565 79.6567 185.599 79.6166 187.566 79.5094C188.701 77.9864 189.813 76.373 190.884 74.6803C191.954 72.989 192.932 71.3015 193.814 69.6363Z" fill="white" fill-opacity="0.2"/>
<path d="M181.655 75.0023C184.948 75.0559 187.659 72.5737 187.71 69.4582C187.76 66.3428 185.132 63.7737 181.839 63.7201C178.546 63.6665 175.835 66.1486 175.784 69.264C175.734 72.3795 178.362 74.9486 181.655 75.0023Z" fill="white"/>
<path d="M285.953 213.733H231.953C223.669 213.733 216.953 220.448 216.953 228.732V282.727C216.953 291.01 223.669 297.725 231.953 297.725H285.953C294.237 297.725 300.953 291.01 300.953 282.727V228.732C300.953 220.448 294.237 213.733 285.953 213.733Z" fill="white" fill-opacity="0.1"/>
<path d="M285.953 213.233H231.953C223.393 213.233 216.453 220.172 216.453 228.731V282.726C216.453 291.286 223.393 298.225 231.953 298.225H285.953C294.514 298.225 301.453 291.286 301.453 282.726V228.731C301.453 220.172 294.514 213.233 285.953 213.233Z" stroke="white" stroke-opacity="0.2" stroke-width="0.937853"/>
<path d="M237.487 265.522L243.793 224.959C243.839 224.659 243.979 224.38 244.192 224.163C244.405 223.946 244.682 223.803 244.981 223.751C245.281 223.7 245.589 223.746 245.862 223.88C246.135 224.015 246.359 224.232 246.501 224.501L253.282 237.222L237.487 265.522ZM282.275 275.364L276.27 238.036C276.225 237.775 276.11 237.529 275.936 237.329C275.763 237.129 275.537 236.979 275.284 236.898C275.032 236.817 274.762 236.807 274.504 236.868C274.246 236.93 274.009 237.062 273.822 237.249L235.953 275.364L256.906 287.171C257.552 287.535 258.281 287.726 259.022 287.726C259.764 287.726 260.492 287.535 261.138 287.171L282.275 275.364ZM265.248 242.79L260.394 233.506C260.271 233.272 260.088 233.076 259.862 232.94C259.637 232.803 259.378 232.732 259.115 232.732C258.85 232.732 258.592 232.803 258.366 232.94C258.141 233.076 257.957 233.272 257.834 233.506L236.527 271.684L265.248 242.79Z" fill="white"/>
<path d="M518.394 299.5H451.606C447.13 299.5 443.5 303.13 443.5 307.605V374.388C443.5 378.865 447.13 382.493 451.606 382.493H518.394C522.872 382.493 526.5 378.865 526.5 374.388V307.605C526.5 303.13 522.872 299.5 518.394 299.5Z" fill="white" fill-opacity="0.1"/>
<path d="M518.395 299H451.606C446.853 299 443 302.853 443 307.605V374.388C443 379.14 446.853 382.993 451.606 382.993H518.395C523.148 382.993 527 379.14 527 374.388V307.605C527 302.853 523.148 299 518.395 299Z" stroke="white" stroke-opacity="0.2" stroke-width="0.937853"/>
<g clip-path="url(#clip1_202_181)">
<mask id="mask2_202_181" style="mask-type:luminance" maskUnits="userSpaceOnUse" x="458" y="324" width="54" height="33">
<path d="M458 324H512V356.4H458V324Z" fill="white"/>
</mask>
<g mask="url(#mask2_202_181)">
<path fill-rule="evenodd" clip-rule="evenodd" d="M485 324C477.8 324 473.3 327.6 471.5 334.8C474.2 331.2 477.35 329.85 480.95 330.75C483.004 331.263 484.472 332.754 486.097 334.403C488.744 337.09 491.808 340.2 498.5 340.2C505.7 340.2 510.2 336.6 512 329.4C509.3 333 506.15 334.35 502.55 333.45C500.496 332.937 499.028 331.446 497.403 329.797C494.756 327.11 491.692 324 485 324ZM471.5 340.2C464.3 340.2 459.8 343.8 458 351C460.7 347.4 463.85 346.05 467.45 346.95C469.504 347.464 470.972 348.954 472.597 350.603C475.244 353.29 478.308 356.4 485 356.4C492.2 356.4 496.7 352.8 498.5 345.6C495.8 349.2 492.65 350.55 489.05 349.65C486.996 349.137 485.528 347.646 483.903 345.997C481.256 343.31 478.192 340.2 471.5 340.2Z" fill="white"/>
</g>
</g>
<path d="M529.5 161.5H475.5C467.216 161.5 460.5 168.215 460.5 176.499V230.494C460.5 238.777 467.216 245.492 475.5 245.492H529.5C537.784 245.492 544.5 238.777 544.5 230.494V176.499C544.5 168.215 537.784 161.5 529.5 161.5Z" fill="white" fill-opacity="0.1"/>
<path d="M529.5 161H475.5C466.94 161 460 167.939 460 176.499V230.494C460 239.053 466.94 245.992 475.5 245.992H529.5C538.06 245.992 545 239.053 545 230.494V176.499C545 167.939 538.06 161 529.5 161Z" stroke="white" stroke-opacity="0.2" stroke-width="0.937853"/>
<mask id="mask3_202_181" style="mask-type:luminance" maskUnits="userSpaceOnUse" x="473" y="175" width="59" height="59">
<path d="M531.662 175H473.498V233.159H531.662V175Z" fill="white"/>
</mask>
<g mask="url(#mask3_202_181)">
<path d="M502.58 175.72C486.514 175.72 473.498 188.745 473.498 204.8C473.498 217.654 481.831 228.549 493.378 232.394C494.837 232.668 495.365 231.768 495.365 230.991C495.365 230.3 495.348 228.474 495.337 226.049C487.243 227.801 485.538 222.14 485.538 222.14C484.213 218.788 482.301 217.889 482.301 217.889C479.67 216.091 482.51 216.13 482.51 216.13C485.425 216.327 486.96 219.119 486.96 219.119C489.554 223.568 493.765 222.281 495.432 221.533C495.686 219.659 496.444 218.37 497.269 217.652C490.813 216.923 484.024 214.425 484.024 203.281C484.024 200.099 485.151 197.508 487.014 195.472C486.693 194.744 485.708 191.781 487.271 187.775C487.271 187.775 489.704 186.999 495.268 190.757C497.597 190.112 500.068 189.791 502.539 189.774C505.01 189.791 507.481 190.114 509.809 190.757C515.34 186.999 517.773 187.775 517.773 187.775C519.334 191.781 518.348 194.741 518.065 195.472C519.909 197.508 521.036 200.101 521.036 203.281C521.036 214.449 514.239 216.912 507.775 217.623C508.786 218.493 509.733 220.283 509.733 223.001C509.733 226.891 509.697 230.024 509.697 230.971C509.697 231.727 510.205 232.635 511.703 232.343C523.336 228.539 531.659 217.634 531.659 204.797C531.659 188.744 518.643 175.718 502.577 175.718L502.58 175.72Z" fill="white"/>
</g>
<path d="M265.5 442.5H211.5C203.216 442.5 196.5 449.215 196.5 457.499V511.494C196.5 519.777 203.216 526.492 211.5 526.492H265.5C273.784 526.492 280.5 519.777 280.5 511.494V457.499C280.5 449.215 273.784 442.5 265.5 442.5Z" fill="white" fill-opacity="0.1"/>
<path d="M265.5 442H211.5C202.94 442 196 448.939 196 457.499V511.494C196 520.053 202.94 526.992 211.5 526.992H265.5C274.06 526.992 281 520.053 281 511.494V457.499C281 448.939 274.06 442 265.5 442Z" stroke="white" stroke-opacity="0.2" stroke-width="0.937853"/>
<path d="M265.192 466.493L240.447 510.737C239.937 511.651 238.624 511.656 238.105 510.747L212.869 466.498C212.304 465.507 213.152 464.307 214.275 464.508L239.046 468.935C239.204 468.964 239.366 468.963 239.524 468.934L263.777 464.514C264.896 464.31 265.747 465.501 265.192 466.493Z" fill="url(#paint2_linear_202_181)"/>
<path d="M250.846 458.701L232.534 462.288C232.388 462.317 232.256 462.394 232.158 462.506C232.06 462.618 232.001 462.759 231.992 462.909L230.866 481.931C230.86 482.036 230.878 482.14 230.919 482.236C230.96 482.332 231.023 482.417 231.103 482.485C231.183 482.552 231.277 482.6 231.379 482.624C231.481 482.649 231.586 482.65 231.689 482.626L236.786 481.449C237.264 481.34 237.695 481.76 237.597 482.239L236.082 489.656C235.98 490.156 236.448 490.582 236.936 490.434L240.085 489.478C240.574 489.329 241.043 489.757 240.94 490.257L238.532 501.906C238.382 502.635 239.351 503.033 239.755 502.408L240.025 501.99L254.947 472.214C255.197 471.716 254.766 471.148 254.218 471.254L248.97 472.266C248.477 472.361 248.058 471.902 248.197 471.42L251.621 459.547C251.761 459.063 251.34 458.604 250.846 458.701Z" fill="url(#paint3_linear_202_181)"/>
<path d="M546.5 469.499H492.5C484.216 469.499 477.5 476.214 477.5 484.498V538.493C477.5 546.776 484.216 553.491 492.5 553.491H546.5C554.784 553.491 561.5 546.776 561.5 538.493V484.498C561.5 476.214 554.784 469.499 546.5 469.499Z" fill="white" fill-opacity="0.1"/>
<path d="M546.5 469H492.5C483.94 469 477 475.939 477 484.499V538.493C477 547.053 483.94 553.992 492.5 553.992H546.5C555.06 553.992 562 547.053 562 538.493V484.499C562 475.939 555.06 469 546.5 469Z" stroke="white" stroke-opacity="0.2" stroke-width="0.937853"/>
<path d="M494.347 482.49C493.743 482.49 493.292 482.983 493.346 483.585L498.445 540.783C498.5 541.385 499.02 542.011 499.603 542.173L521.244 548.181C521.827 548.343 522.78 548.343 523.364 548.181L545.071 542.164C545.654 542.001 546.175 541.377 546.229 540.774L551.337 483.585C551.392 482.983 550.939 482.49 550.335 482.49H494.347ZM540.476 495.608C540.428 496.146 540.345 497.079 540.291 497.681L540.156 499.181C540.103 499.783 540.025 500.645 539.985 501.096C539.944 501.546 539.906 501.915 539.899 501.915C539.892 501.915 539.392 501.915 538.786 501.915H523.442C522.836 501.915 522.336 501.915 522.329 501.915C522.323 501.915 521.823 501.915 521.217 501.915H513.136C512.532 501.915 512.081 502.407 512.134 503.01L512.605 508.279C512.66 508.881 513.198 509.374 513.804 509.374H521.218C521.823 509.374 522.323 509.374 522.329 509.374C522.337 509.374 522.837 509.374 523.442 509.374H536.187C536.791 509.374 537.727 509.374 538.267 509.374C538.805 509.374 539.206 509.814 539.158 510.351C539.109 510.889 539.025 511.822 538.972 512.424L537.456 529.41C537.401 530.012 537.333 530.782 537.303 531.12C537.273 531.458 536.772 531.868 536.189 532.029L523.401 535.575C522.819 535.736 522.334 535.87 522.325 535.871C522.316 535.873 521.832 535.743 521.248 535.581L508.448 532.03C507.865 531.868 507.344 531.242 507.29 530.639L506.466 521.391C506.412 520.789 506.863 520.296 507.469 520.296H508.636C509.242 520.296 510.232 520.296 510.836 520.296H512.578C513.183 520.296 513.723 520.789 513.776 521.391L514.099 525.012C514.153 525.614 514.675 526.236 515.259 526.394L521.247 528.011C521.83 528.169 522.31 528.298 522.313 528.298C522.316 528.298 522.795 528.168 523.38 528.01L529.379 526.39C529.962 526.232 530.484 525.61 530.539 525.008L531.189 517.755C531.242 517.152 530.792 516.66 530.187 516.66H523.442C522.837 516.66 522.337 516.66 522.329 516.66C522.323 516.66 521.823 516.66 521.218 516.66H507.143C506.537 516.66 505.999 516.166 505.945 515.564L504.349 497.681C504.295 497.079 504.211 496.146 504.163 495.608C504.116 495.071 504.572 494.631 505.176 494.631H521.218C521.823 494.631 522.323 494.631 522.329 494.631C522.337 494.631 522.837 494.631 523.442 494.631H539.463C540.069 494.631 540.524 495.071 540.476 495.608Z" fill="white"/>
<path d="M369.394 536.5H302.606C298.13 536.5 294.5 540.13 294.5 544.605V611.388C294.5 615.865 298.13 619.493 302.606 619.493H369.394C373.872 619.493 377.5 615.865 377.5 611.388V544.605C377.5 540.13 373.872 536.5 369.394 536.5Z" fill="white" fill-opacity="0.1"/>
<path d="M369.395 536H302.606C297.853 536 294 539.853 294 544.605V611.388C294 616.14 297.853 619.993 302.606 619.993H369.395C374.148 619.993 378 616.14 378 611.388V544.605C378 539.853 374.148 536 369.395 536Z" stroke="white" stroke-opacity="0.2" stroke-width="0.937853"/>
<g clip-path="url(#clip2_202_181)">
<path d="M348.396 586.396L337.5 597.293L326.957 586.75L337.854 575.854L359.5 554.207V575.293L348.396 586.396Z" fill="white" stroke="black"/>
<path d="M349.457 586.75L359.5 576.707V596.793L349.457 586.75Z" fill="white" stroke="black"/>
<path d="M325.896 564.604L336.793 575.5L325.896 586.396L315.5 596.793V554.207L325.896 564.604Z" fill="white" stroke="black"/>
</g>
<path d="M418.394 413.5H351.606C347.13 413.5 343.5 417.13 343.5 421.605V488.388C343.5 492.865 347.13 496.493 351.606 496.493H418.394C422.872 496.493 426.5 492.865 426.5 488.388V421.605C426.5 417.13 422.872 413.5 418.394 413.5Z" fill="white" fill-opacity="0.1"/>
<path d="M418.395 413H351.606C346.853 413 343 416.853 343 421.605V488.388C343 493.14 346.853 496.993 351.606 496.993H418.395C423.148 496.993 427 493.14 427 488.388V421.605C427 416.853 423.148 413 418.395 413Z" stroke="white" stroke-opacity="0.2" stroke-width="0.937853"/>
<path fill-rule="evenodd" clip-rule="evenodd" d="M394.576 479.589V487.694C395.889 488.375 397.494 488.878 399.277 489.218C401.06 489.558 403.005 489.72 404.951 489.72C406.896 489.72 408.68 489.542 410.463 489.17C412.245 488.797 413.705 488.18 415.002 487.386C416.314 486.527 417.434 485.441 418.082 483.982C418.73 482.523 419.233 480.903 419.233 478.795C419.233 477.32 419.005 476.04 418.568 474.904C418.13 473.77 417.498 472.798 416.622 471.987C415.796 471.128 414.84 470.366 413.705 469.718C412.569 469.069 411.273 468.389 409.814 467.773C408.744 467.335 407.868 466.914 406.896 466.492C406.054 466.071 405.324 465.649 404.789 465.228C404.189 464.79 403.735 464.337 403.411 463.866C403.086 463.38 402.924 462.845 402.924 462.246C402.924 461.695 403.069 461.191 403.362 460.738C403.655 460.284 404.06 459.911 404.578 459.587C405.097 459.263 405.745 459.02 406.524 458.842C407.285 458.664 408.128 458.583 409.117 458.583C409.798 458.583 410.512 458.633 411.225 458.734C411.97 458.836 412.733 458.994 413.494 459.204C414.256 459.415 415.002 459.674 415.764 459.998C416.477 460.322 417.142 460.696 417.709 461.117V453.499C416.477 453.029 415.115 452.672 413.656 452.446C412.197 452.219 410.576 452.104 408.631 452.104C406.686 452.104 404.902 452.316 403.119 452.721C401.335 453.126 399.877 453.774 398.58 454.665C397.266 455.541 396.31 456.611 395.5 458.07C394.738 459.431 394.365 460.988 394.365 462.932C394.365 465.364 395.062 467.471 396.472 469.092C397.867 470.875 400.039 472.172 402.795 473.468C403.914 473.922 404.902 474.377 405.874 474.814C406.848 475.252 407.658 475.706 408.307 476.175C409.004 476.645 409.555 477.165 409.927 477.716C410.332 478.267 410.544 478.915 410.544 479.661C410.544 480.18 410.417 480.666 410.17 481.119C409.924 481.573 409.538 481.962 409.02 482.287C408.501 482.611 407.868 482.87 407.075 483.065C406.313 483.243 405.453 483.34 404.319 483.34C402.536 483.34 400.752 483.032 399.131 482.417C397.347 481.8 395.727 480.876 394.268 479.661L394.576 479.589ZM380.959 459.652H391.334V453.006H362.316V459.652H372.691V489.315H380.959V459.652Z" fill="white"/>
<path d="M183.5 340.5H129.5C121.216 340.5 114.5 347.215 114.5 355.499V409.494C114.5 417.777 121.216 424.492 129.5 424.492H183.5C191.784 424.492 198.5 417.777 198.5 409.494V355.499C198.5 347.215 191.784 340.5 183.5 340.5Z" fill="white" fill-opacity="0.1"/>
<path d="M183.5 340H129.5C120.94 340 114 346.939 114 355.499V409.494C114 418.053 120.94 424.992 129.5 424.992H183.5C192.06 424.992 199 418.053 199 409.494V355.499C199 346.939 192.06 340 183.5 340Z" stroke="white" stroke-opacity="0.2" stroke-width="0.937853"/>
<path d="M157 386.5C157 383.98 158.001 381.564 159.782 379.782C161.564 378.001 163.98 377 166.5 377C169.02 377 171.436 378.001 173.218 379.782C174.999 381.564 176 383.98 176 386.5C176 389.02 174.999 391.436 173.218 393.218C171.436 394.999 169.02 396 166.5 396C163.98 396 161.564 394.999 159.782 393.218C158.001 391.436 157 389.02 157 386.5V386.5Z" stroke="white" stroke-width="3.5"/>
<path d="M138 405.5C138 402.98 139.001 400.564 140.782 398.782C142.564 397.001 144.98 396 147.5 396H157V405.5C157 408.02 155.999 410.436 154.218 412.218C152.436 413.999 150.02 415 147.5 415C144.98 415 142.564 413.999 140.782 412.218C139.001 410.436 138 408.02 138 405.5Z" stroke="white" stroke-width="3.5"/>
<path d="M157 358V377H166.5C169.02 377 171.436 375.999 173.218 374.218C174.999 372.436 176 370.02 176 367.5C176 364.98 174.999 362.564 173.218 360.782C171.436 359.001 169.02 358 166.5 358H157Z" stroke="white" stroke-width="3.5"/>
<path d="M138 367.5C138 370.02 139.001 372.436 140.782 374.218C142.564 375.999 144.98 377 147.5 377H157V358H147.5C144.98 358 142.564 359.001 140.782 360.782C139.001 362.564 138 364.98 138 367.5Z" stroke="white" stroke-width="3.5"/>
<path d="M138 386.5C138 389.02 139.001 391.436 140.782 393.218C142.564 394.999 144.98 396 147.5 396H157V377H147.5C144.98 377 142.564 378.001 140.782 379.782C139.001 381.564 138 383.98 138 386.5Z" stroke="white" stroke-width="3.5"/>
<g clip-path="url(#clip3_202_181)">
<path d="M373.858 354.5C373.858 343.275 364.724 334.142 353.499 334.142C342.274 334.142 333.141 343.275 333.141 354.5C333.141 365.725 342.274 374.859 353.499 374.859C364.724 374.859 373.858 365.725 373.858 354.5ZM336.842 354.5C336.842 345.315 344.314 337.843 353.499 337.843C362.685 337.843 370.156 345.315 370.156 354.5C370.156 363.686 362.685 371.157 353.499 371.157C344.314 371.157 336.842 363.686 336.842 354.5Z" fill="white"/>
<path d="M366.456 354.5C366.456 347.358 360.643 341.544 353.5 341.544C346.358 341.544 340.545 347.358 340.545 354.5C340.545 361.642 346.358 367.455 353.5 367.455C360.643 367.455 366.456 361.642 366.456 354.5ZM344.246 354.5C344.246 349.397 348.398 345.246 353.5 345.246C358.603 345.246 362.754 349.397 362.754 354.5C362.754 359.602 358.603 363.754 353.5 363.754C348.398 363.754 344.246 359.602 344.246 354.5Z" fill="white"/>
<path d="M359.052 354.5C359.052 351.439 356.561 348.948 353.5 348.948C350.438 348.948 347.947 351.439 347.947 354.5C347.947 357.561 350.438 360.052 353.5 360.052C356.561 360.052 359.052 357.561 359.052 354.5ZM351.649 354.5C351.649 353.478 352.478 352.649 353.5 352.649C354.521 352.649 355.35 353.478 355.35 354.5C355.35 355.522 354.521 356.351 353.5 356.351C352.478 356.351 351.649 355.522 351.649 354.5Z" fill="white"/>
<path d="M340.078 378.784C341.488 379.567 342.98 380.215 344.527 380.744L344.437 380.814C350.654 388.843 359.321 395.108 368.216 398.004L369.361 394.484C365.943 393.372 357.853 390.07 350.37 382.073C351.399 382.19 352.441 382.262 353.5 382.262C354.098 382.262 354.683 382.21 355.269 382.173L355.205 382.286C364.144 387.338 372.561 389.137 380.016 389.137C398.324 389.137 410.826 378.286 411 378.131L408.544 375.364C407.665 376.141 387.669 393.359 361.16 381.162C362.743 380.707 364.262 380.107 365.715 379.391L365.698 379.517C367.897 379.796 370.122 379.935 372.339 379.935C380.273 379.935 388.147 378.173 394.665 374.86L392.988 371.56C389.779 373.191 381.715 376.576 370.757 376.21C372.043 375.184 373.229 374.044 374.314 372.81L374.351 372.943C408.544 363.445 410.85 330.879 410.867 330.551L407.173 330.334C407.156 330.621 405.214 357.706 377.782 367.926C378.565 366.515 379.213 365.024 379.742 363.476L379.813 363.567C387.841 357.35 394.106 348.683 397.003 339.788L393.482 338.643C392.37 342.061 389.068 350.151 381.071 357.633C381.19 356.601 381.262 355.559 381.262 354.5C381.262 353.902 381.21 353.317 381.173 352.731L381.286 352.795C398.75 321.9 377.349 297.242 377.131 297L374.364 299.456C375.141 300.337 392.359 320.327 380.162 346.84C379.707 345.257 379.107 343.738 378.391 342.285L378.517 342.302C379.796 332.233 378.099 321.673 373.859 313.337L370.559 315.014C372.189 318.221 375.578 326.289 375.208 337.247C374.182 335.961 373.041 334.774 371.806 333.688L371.939 333.651C362.443 299.454 329.877 297.148 329.549 297.13L329.333 300.824C329.619 300.84 356.704 302.782 366.924 330.214C365.513 329.431 364.022 328.783 362.474 328.254L362.565 328.184C356.348 320.155 347.681 313.89 338.786 310.994L337.641 314.514C341.059 315.626 349.149 318.928 356.632 326.925C355.601 326.81 354.559 326.738 353.5 326.738C352.902 326.738 352.317 326.79 351.731 326.827L351.795 326.714C320.906 309.254 296.244 330.651 296 330.869L298.456 333.636C299.335 332.861 319.333 315.643 345.84 327.838C344.257 328.293 342.738 328.893 341.285 329.609L341.302 329.483C331.233 328.202 320.673 329.901 312.337 334.141L314.014 337.441C317.221 335.813 325.287 332.422 336.247 332.792C334.961 333.818 333.774 334.959 332.688 336.192L332.651 336.059C298.454 345.557 296.148 378.123 296.13 378.451L299.824 378.667C299.84 378.381 301.782 351.296 329.214 341.076C328.431 342.487 327.783 343.978 327.254 345.526L327.184 345.435C319.155 351.652 312.89 360.319 309.994 369.214L313.514 370.359C314.626 366.941 317.928 358.851 325.925 351.368C325.81 352.399 325.738 353.441 325.738 354.5C325.738 355.098 325.79 355.683 325.827 356.269L325.714 356.205C308.25 387.1 329.651 411.758 329.869 412L332.636 409.544C331.859 408.663 314.641 388.673 326.838 362.16C327.293 363.743 327.893 365.262 328.609 366.715L328.483 366.698C327.204 376.767 328.901 387.327 333.141 395.663L336.441 393.986C334.811 390.779 331.422 382.711 331.792 371.753C332.818 373.039 333.959 374.226 335.194 375.312L335.061 375.349C344.559 409.542 377.125 411.848 377.453 411.865L377.669 408.171C377.382 408.16 350.298 406.218 340.078 378.784ZM329.44 354.5C329.44 341.234 340.234 330.44 353.5 330.44C366.766 330.44 377.56 341.234 377.56 354.5C377.56 367.766 366.766 378.56 353.5 378.56C340.234 378.56 329.44 367.766 329.44 354.5Z" fill="white"/>
<path d="M327.588 308.23H323.887V311.932H327.588V308.23Z" fill="white"/>
<path d="M320.186 300.828H316.484V304.529H320.186V300.828Z" fill="white"/>
<path d="M305.379 313.783H301.678V317.484H305.379V313.783Z" fill="white"/>
<path d="M305.379 341.544H301.678V345.246H305.379V341.544Z" fill="white"/>
<path d="M312.784 380.411H309.082V384.113H312.784V380.411Z" fill="white"/>
<path d="M305.379 387.814H301.678V391.516H305.379V387.814Z" fill="white"/>
<path d="M336.842 402.62H333.141V406.322H336.842V402.62Z" fill="white"/>
<path d="M349.799 408.172H346.098V411.874H349.799V408.172Z" fill="white"/>
<path d="M381.262 397.068H377.561V400.769H381.262V397.068Z" fill="white"/>
<path d="M392.366 393.366H388.664V397.068H392.366V393.366Z" fill="white"/>
<path d="M409.024 406.322H405.322V410.023H409.024V406.322Z" fill="white"/>
<path d="M407.172 363.754H403.471V367.455H407.172V363.754Z" fill="white"/>
<path d="M399.77 321.186H396.068V324.888H399.77V321.186Z" fill="white"/>
<path d="M403.471 310.082H399.77V313.783H403.471V310.082Z" fill="white"/>
<path d="M368.307 302.678H364.605V306.38H368.307V302.678Z" fill="white"/>
<path d="M360.903 297.126H357.201V300.828H360.903V297.126Z" fill="white"/>
</g>
</g>
</g>
<defs>
<radialGradient id="paint0_radial_202_181" cx="0" cy="0" r="1" gradientUnits="userSpaceOnUse" gradientTransform="translate(354 354.967) rotate(90) scale(372.901 372.936)">
<stop stop-color="white"/>
<stop offset="1" stop-color="white" stop-opacity="0"/>
</radialGradient>
<radialGradient id="paint1_radial_202_181" cx="0" cy="0" r="1" gradientUnits="userSpaceOnUse" gradientTransform="translate(350.5 358.5) rotate(88.6959) scale(593.154 665.573)">
<stop stop-opacity="0.25"/>
<stop offset="1"/>
</radialGradient>
<linearGradient id="paint2_linear_202_181" x1="212.253" y1="468.078" x2="238.937" y2="504.32" gradientUnits="userSpaceOnUse">
<stop stop-color="white" stop-opacity="0"/>
<stop offset="1" stop-color="white"/>
</linearGradient>
<linearGradient id="paint3_linear_202_181" x1="241.343" y1="459.675" x2="246.831" y2="497.332" gradientUnits="userSpaceOnUse">
<stop offset="0.0001" stop-color="white"/>
</linearGradient>
<clipPath id="clip0_202_181">
<rect width="708" height="709" fill="white"/>
</clipPath>
<clipPath id="clip1_202_181">
<rect width="54" height="33" fill="white" transform="translate(458 324)"/>
</clipPath>
<clipPath id="clip2_202_181">
<rect width="45" height="45" fill="white" transform="translate(315 553)"/>
</clipPath>
<clipPath id="clip3_202_181">
<rect width="115" height="115" fill="white" transform="translate(296 297)"/>
</clipPath>
</defs>
</svg>
